<svg width="1440" height="900" viewBox="0 0 1440 900" fill="none" xmlns="http://www.w3.org/2000/svg">
  <rect width="1440" height="900" rx="32" fill="#121813"/>
  <rect x="34" y="34" width="1372" height="832" rx="26" fill="#1A231C" stroke="#425547"/>
  <rect x="70" y="84" width="412" height="724" rx="22" fill="#202B22"/>
  <rect x="516" y="84" width="418" height="724" rx="22" fill="#17211A"/>
  <rect x="966" y="84" width="404" height="724" rx="22" fill="#1E2A21"/>
  <text x="102" y="140" fill="#F0EEE8" font-size="26" font-family="'Courier New', monospace">report mentions</text>
  <text x="548" y="140" fill="#F0EEE8" font-size="26" font-family="'Courier New', monospace">alias resolution</text>
  <text x="998" y="140" fill="#F0EEE8" font-size="26" font-family="'Courier New', monospace">analyst review</text>
  <rect x="98" y="184" width="356" height="122" rx="16" fill="#2A3A2D"/>
  <rect x="98" y="326" width="356" height="122" rx="16" fill="#253328"/>
  <rect x="98" y="468" width="356" height="122" rx="16" fill="#253328"/>
  <rect x="548" y="184" width="352" height="190" rx="16" fill="#2A3B2F"/>
  <rect x="548" y="400" width="352" height="190" rx="16" fill="#223126"/>
  <rect x="998" y="184" width="340" height="160" rx="16" fill="#2E3C30"/>
  <rect x="998" y="372" width="340" height="220" rx="16" fill="#273527"/>
  <text x="126" y="244" fill="#D8E2D2" font-size="18" font-family="'Courier New', monospace">entity candidates</text>
  <text x="126" y="386" fill="#D8E2D2" font-size="18" font-family="'Courier New', monospace">source references</text>
  <text x="126" y="528" fill="#D8E2D2" font-size="18" font-family="'Courier New', monospace">confidence slices</text>
  <text x="578" y="260" fill="#A6D788" font-size="18" font-family="'Courier New', monospace">embedding + alias proposals</text>
  <text x="578" y="476" fill="#D4DFCF" font-size="18" font-family="'Courier New', monospace">resolution traceability</text>
  <text x="1028" y="250" fill="#A6D788" font-size="18" font-family="'Courier New', monospace">queue status</text>
  <text x="1028" y="438" fill="#D4DFCF" font-size="18" font-family="'Courier New', monospace">accept / reject / notes</text>
</svg>
